<svg xmlns="http://www.w3.org/2000/svg" viewBox="0 0 24 24">
  <path fill="currentColor" d="M9 3a2 2 0 0 1 2 2v1h7a2 2 0 0 1 2 2v8a2 2 0 0 1-2 2h-1v1a2 2 0 0 1-2 2H6a2 2 0 0 1-2-2v-8a2 2 0 0 1 2-2h1V5a2 2 0 0 1 2-2m0 2v1h2V5zm-3 6v8h9v-1H8a2 2 0 0 1-2-2v-5zm2-3v8h10V8z"/>
</svg>
<svg xmlns="http://www.w3.org/2000/svg" width="24" height="24" viewBox="0 0 24 24"><path fill="currentColor" d="M14 16.75H6A2.75 2.75 0 0 1 3.25 14V6A2.75 2.75 0 0 1 6 3.25h8A2.75 2.75 0 0 1 16.75 6v8A2.75 2.75 0 0 1 14 16.75m-8-12A1.25 1.25 0 0 0 4.75 6v8A1.25 1.25 0 0 0 6 15.25h8A1.25 1.25 0 0 0 15.25 14V6A1.25 1.25 0 0 0 14 4.75Z"/><path fill="currentColor" d="M18 20.75h-8A2.75 2.75 0 0 1 7.25 18v-2h1.5v2A1.25 1.25 0 0 0 10 19.25h8A1.25 1.25 0 0 0 19.25 18v-8A1.25 1.25 0 0 0 18 8.75h-2v-1.5h2A2.75 2.75 0 0 1 20.75 10v8A2.75 2.75 0 0 1 18 20.75"/></svg>
